<?xml version="1.0" encoding="utf-8"?>
<!-- Generator: Adobe Illustrator 17.1.0, SVG Export Plug-In . SVG Version: 6.00 Build 0)  -->
<!DOCTYPE svg PUBLIC "-//W3C//DTD SVG 1.1//EN" "http://www.w3.org/Graphics/SVG/1.1/DTD/svg11.dtd">
<svg version="1.1" id="Layer_1" xmlns="http://www.w3.org/2000/svg" xmlns:xlink="http://www.w3.org/1999/xlink" x="0px" y="0px"
	 viewBox="0 0 70 70" enable-background="new 0 0 70 70" xml:space="preserve">
<g>
	<path fill="#FFFFFF" d="M35.152,0.566c-19.315,0-34.977,15.659-34.977,34.977c0,15.454,10.022,28.565,23.919,33.19
		c1.748,0.324,2.39-0.759,2.39-1.683c0-0.834-0.032-3.589-0.047-6.512c-9.731,2.116-11.784-4.127-11.784-4.127
		c-1.591-4.043-3.884-5.118-3.884-5.118c-3.173-2.171,0.239-2.126,0.239-2.126c3.512,0.247,5.362,3.605,5.362,3.605
		c3.12,5.347,8.182,3.801,10.178,2.907c0.314-2.26,1.22-3.804,2.221-4.677C21,50.118,12.833,47.118,12.833,33.716
		c0-3.819,1.366-6.939,3.604-9.388c-0.363-0.881-1.56-4.439,0.339-9.257c0,0,2.937-0.939,9.621,3.586
		c2.79-0.775,5.782-1.164,8.755-1.177c2.972,0.014,5.967,0.402,8.762,1.177c6.676-4.525,9.609-3.586,9.609-3.586
		c1.904,4.818,0.706,8.375,0.343,9.257c2.243,2.449,3.6,5.57,3.6,9.388c0,13.434-8.182,16.392-15.971,17.258
		c1.255,1.086,2.372,3.214,2.372,6.477c0,4.68-0.041,8.447-0.041,9.599c0,0.931,0.63,2.021,2.403,1.678
		c13.89-4.63,23.899-17.736,23.899-33.185C70.128,16.225,54.468,0.566,35.152,0.566z"/>
	<path fill="#FFFFFF" d="M12.509,50.367c-0.082,0.174,0.06,0.411,0.314,0.525c0.249,0.119,0.522,0.067,0.599-0.107
		c0.088-0.174-0.057-0.413-0.311-0.528C12.858,50.138,12.584,50.188,12.509,50.367z"/>
	<path fill="#FFFFFF" d="M14.022,51.477c-0.169,0.157-0.126,0.483,0.103,0.727c0.221,0.244,0.547,0.316,0.714,0.162
		c0.174-0.157,0.13-0.48-0.099-0.727C14.51,51.395,14.194,51.322,14.022,51.477z"/>
	<path fill="#FFFFFF" d="M15.441,53.245c-0.219,0.149-0.219,0.523-0.005,0.834c0.217,0.311,0.567,0.451,0.781,0.301
		c0.219-0.152,0.219-0.525,0.005-0.842C16.004,53.23,15.658,53.095,15.441,53.245z"/>
	<path fill="#FFFFFF" d="M17.01,55.299c-0.192,0.211-0.107,0.612,0.199,0.894c0.299,0.288,0.707,0.345,0.899,0.134
		c0.204-0.209,0.112-0.612-0.192-0.894C17.614,55.146,17.204,55.087,17.01,55.299z"/>
	<path fill="#FFFFFF" d="M19.265,57.021c-0.08,0.277,0.179,0.598,0.575,0.718c0.396,0.116,0.789-0.008,0.874-0.282
		c0.082-0.279-0.177-0.597-0.572-0.716C19.742,56.615,19.347,56.745,19.265,57.021z"/>
	<path fill="#FFFFFF" d="M22.073,57.691c0.005,0.284,0.343,0.517,0.761,0.508c0.416-0.005,0.752-0.244,0.742-0.533
		c0-0.287-0.341-0.518-0.756-0.51C22.401,57.162,22.073,57.399,22.073,57.691z"/>
	<path fill="#FFFFFF" d="M25.403,56.829c-0.405,0.075-0.7,0.364-0.649,0.652c0.052,0.279,0.427,0.453,0.834,0.379
		c0.413-0.077,0.702-0.366,0.652-0.648C26.187,56.926,25.817,56.757,25.403,56.829z"/>
</g>
</svg>
