<?xml version="1.0" encoding="utf-8"?>
<!-- Generator: Adobe Illustrator 17.1.0, SVG Export Plug-In . SVG Version: 6.00 Build 0)  -->
<!DOCTYPE svg PUBLIC "-//W3C//DTD SVG 1.1//EN" "http://www.w3.org/Graphics/SVG/1.1/DTD/svg11.dtd">
<svg version="1.1" id="Layer_1" xmlns="http://www.w3.org/2000/svg" xmlns:xlink="http://www.w3.org/1999/xlink" x="0px" y="0px"
	 viewBox="0 0 70 70" enable-background="new 0 0 70 70" xml:space="preserve">
<g>
	<path fill="#FFFFFF" d="M63.168,1H6.461C3.75,1,1,2.515,1,5.16v56.952C1,64.762,3.75,69,6.461,69h56.707
		C65.882,69,69,64.762,69,62.112V5.16C69,2.515,65.882,1,63.168,1z M22,59H11V25h11V59z M16.349,20.974
		c-3.164,0-5.721-2.565-5.721-5.725c0-3.157,2.557-5.721,5.721-5.721c3.156,0,5.72,2.565,5.72,5.721
		C22.069,18.409,19.504,20.974,16.349,20.974z M59,59H48V41.631c0-3.685-0.047-8.422-5.105-8.422c-5.137,0-5.895,4.012-5.895,8.155
		V59H27V25h10v5h0.08c1.318-1,4.912-5.302,9.714-5.302C56.782,24.698,59,31.1,59,39.655V59z"/>
</g>
</svg>
