<?xml version="1.0" encoding="utf-8"?>
<!-- Generator: Adobe Illustrator 17.1.0, SVG Export Plug-In . SVG Version: 6.00 Build 0)  -->
<!DOCTYPE svg PUBLIC "-//W3C//DTD SVG 1.1//EN" "http://www.w3.org/Graphics/SVG/1.1/DTD/svg11.dtd">
<svg version="1.1" id="Layer_1" xmlns="http://www.w3.org/2000/svg" xmlns:xlink="http://www.w3.org/1999/xlink" x="0px" y="0px"
	 viewBox="0 248 640 640" enable-background="new 0 248 640 640" xml:space="preserve">
<g>
	<path fill="#FFFFFF" d="M583.2,248H53.3C28,248,0,264.4,0,289.2v532.2C0,846.1,28,888,53.3,888h529.9c25.4,0,56.8-41.9,56.8-66.7
		V289.2C640,264.4,608.6,248,583.2,248z M201.1,796.6H91.4v-320h109.7V796.6z M145.7,436.9c-29.6,0-53.5-24-53.5-53.5
		c0-29.5,23.9-53.5,53.5-53.5c29.5,0,53.4,24,53.4,53.5C199.2,413,175.2,436.9,145.7,436.9z M548.6,796.6H438.9V630
		c0-34.4,0.7-78.7-46.6-78.7c-48,0-54,37.5-54,76.2v169.1h-91.4v-320h91.4v45.7h1.2c12.3-9.1,48-50.1,92.9-50.1
		c93.3,0,116.2,59.3,116.2,139.3V796.6z"/>
</g>
</svg>
