<?xml version="1.0" encoding="utf-8"?>
<!-- Generator: Adobe Illustrator 17.1.0, SVG Export Plug-In . SVG Version: 6.00 Build 0)  -->
<!DOCTYPE svg PUBLIC "-//W3C//DTD SVG 1.1//EN" "http://www.w3.org/Graphics/SVG/1.1/DTD/svg11.dtd">
<svg version="1.1" id="Layer_1" xmlns="http://www.w3.org/2000/svg" xmlns:xlink="http://www.w3.org/1999/xlink" x="0px" y="0px"
	 viewBox="0 0 70 70" enable-background="new 0 0 70 70" xml:space="preserve">
<g>
	<path fill="#FFFFFF" d="M34.882,0.359C15.418,0.551,0.214,16.286,0.446,35.998C0.666,54.645,16.469,70.041,35.19,69.847
		c19.679-0.204,34.948-15.727,34.747-35.325C69.742,15.617,53.894,0.171,34.882,0.359z M43,21.838c0-0.036,0.535-0.085,0.943-0.086
		C47.388,21.746,51,21.749,54,21.749C54,22.942,54,24,54,25c-5,0-7,0-11,0C43,24,43,23.064,43,21.838z M36.149,43.146
		c-0.931,3.447-4.22,5.765-8.376,5.818C22.592,49.03,18,48.98,12,48.98c0-9.65,0-19.206,0-28.963c6,0,10.885-0.187,16.176,0.053
		c5.154,0.234,8.313,4.598,6.916,9.463c-0.401,1.398-1.625,2.555-2.475,3.811C36.008,35.405,37.33,38.774,36.149,43.146z M58.676,40
		c-4.964,0-9.837,0-14.706,0c-0.056,3,1.139,4.42,3.696,4.967C50.437,45.56,52.639,45,53.759,42c1.57,0,3.159,0,4.738,0
		c0.291,3-1.111,5.355-3.895,6.556c-3.716,1.603-7.553,1.682-11.28,0.076c-4.945-2.131-7.037-8.189-5.009-14.056
		c2.235-6.465,10.113-9.368,16.013-5.88C57.693,30.684,59.482,34,58.676,40z"/>
	<path fill="#FFFFFF" d="M27.321,36.145C24.548,36,22,36.109,19,36.109c0,2.756,0,5.223,0,7.776c3,0,5.323,0.086,7.93-0.026
		c2.269-0.098,3.277-1.283,3.344-3.562C30.346,37.858,29.327,36.25,27.321,36.145z"/>
	<path fill="#FFFFFF" d="M27.318,31.534c1.518-0.07,1.979-1.204,1.914-3.592c-0.039-1.464-0.448-2.653-2.102-2.704
		C24.467,25.154,22,25.215,19,25.215c0,2.215,0,4.201,0,6.355C22,31.57,24.551,31.662,27.318,31.534z"/>
	<path fill="#FFFFFF" d="M49.679,31.732C46.555,31.399,44.663,33,43.898,36c3.136,0,6.146,0,9.154,0
		C53.072,33,51.799,31.959,49.679,31.732z"/>
</g>
</svg>
