<?xml version="1.0" encoding="utf-8"?>
<!-- Generator: Adobe Illustrator 17.1.0, SVG Export Plug-In . SVG Version: 6.00 Build 0)  -->
<!DOCTYPE svg PUBLIC "-//W3C//DTD SVG 1.1//EN" "http://www.w3.org/Graphics/SVG/1.1/DTD/svg11.dtd">
<svg version="1.1" id="Layer_1" xmlns="http://www.w3.org/2000/svg" xmlns:xlink="http://www.w3.org/1999/xlink" x="0px" y="0px"
	 viewBox="0 0 70 70" enable-background="new 0 0 70 70" xml:space="preserve">
<g>
	<path fill="#FFFFFF" d="M0,35.18C-0.05,15.872,15.764,0.03,35.117,0C54.51-0.03,70.397,15.725,70.41,35.003
		c0.014,19.541-15.627,35.344-35.041,35.405C15.837,70.468,0.051,54.745,0,35.18z M56.996,35.202c0-1.956-0.057-3.914,0.02-5.867
		c0.051-1.31-0.479-2.132-1.55-2.838c-6.194-4.082-12.369-8.194-18.518-12.343c-1.2-0.81-2.202-0.865-3.426-0.039
		c-6.19,4.178-12.41,8.313-18.643,12.427c-1.023,0.675-1.501,1.474-1.484,2.721c0.052,3.962,0.043,7.924,0.004,11.886
		c-0.011,1.164,0.366,1.973,1.362,2.631c6.316,4.17,12.611,8.372,18.895,12.591c1.047,0.703,1.973,0.755,3.038,0.04
		c6.325-4.247,12.663-8.475,19.018-12.678c0.946-0.626,1.32-1.408,1.296-2.512C56.965,39.215,56.996,37.209,56.996,35.202z"/>
	<path fill="#FFFFFF" d="M33.327,18.83c0,2.878,0.03,5.377-0.029,7.875c-0.01,0.416-0.3,0.972-0.639,1.209
		c-2.211,1.548-4.46,3.044-6.728,4.508c-0.308,0.199-0.914,0.309-1.181,0.141c-1.974-1.241-3.898-2.564-6.033-3.992
		C23.624,25.299,28.336,22.157,33.327,18.83z"/>
	<path fill="#FFFFFF" d="M51.692,28.567c-2.084,1.398-3.883,2.664-5.756,3.81c-0.38,0.233-1.162,0.208-1.548-0.034
		c-2.202-1.38-4.35-2.848-6.49-4.323c-0.335-0.231-0.763-0.645-0.771-0.984c-0.064-2.627-0.035-5.256-0.035-8.198
		C42.059,22.148,46.771,25.288,51.692,28.567z"/>
	<path fill="#FFFFFF" d="M33.326,51.577c-4.994-3.328-9.685-6.455-14.614-9.74c2.127-1.42,4.084-2.763,6.093-4.022
		c0.257-0.161,0.861,0,1.179,0.206c2.225,1.439,4.431,2.908,6.603,4.424c0.349,0.244,0.696,0.768,0.707,1.172
		C33.357,46.153,33.326,48.692,33.326,51.577z"/>
	<path fill="#FFFFFF" d="M37.086,51.58c0-2.923-0.02-5.507,0.026-8.09c0.006-0.326,0.283-0.756,0.565-0.95
		c2.264-1.56,4.543-3.1,6.861-4.577c0.318-0.203,0.983-0.204,1.303-0.003c1.9,1.192,3.746,2.471,5.846,3.879
		C46.826,45.081,42.116,48.224,37.086,51.58z"/>
	<path fill="#FFFFFF" d="M41.76,35.205c-2.125,1.426-4.051,2.747-6.017,4.006c-0.261,0.167-0.812,0.168-1.072,0.002
		c-1.966-1.259-3.894-2.579-6.025-4.009c2.129-1.428,4.056-2.748,6.021-4.007c0.261-0.167,0.812-0.169,1.072-0.002
		C37.705,32.455,39.632,33.776,41.76,35.205z"/>
	<path fill="#FFFFFF" d="M21.803,35.202c-1.595,1.068-2.955,1.979-4.493,3.008c0-2.022,0-3.869,0-6.009
		C18.787,33.188,20.19,34.125,21.803,35.202z"/>
	<path fill="#FFFFFF" d="M53.161,38.249c-1.575-1.054-2.956-1.978-4.546-3.041c1.559-1.047,2.961-1.99,4.546-3.055
		C53.161,34.257,53.161,36.078,53.161,38.249z"/>
</g>
</svg>
