<?xml version="1.0" encoding="utf-8"?>
<!-- Generator: Adobe Illustrator 17.1.0, SVG Export Plug-In . SVG Version: 6.00 Build 0)  -->
<!DOCTYPE svg PUBLIC "-//W3C//DTD SVG 1.1//EN" "http://www.w3.org/Graphics/SVG/1.1/DTD/svg11.dtd">
<svg version="1.1" id="Layer_1" xmlns="http://www.w3.org/2000/svg" xmlns:xlink="http://www.w3.org/1999/xlink" x="0px" y="0px"
	 viewBox="0 0 85.367 111.633" enable-background="new 0 0 85.367 111.633" xml:space="preserve">
<g>
	<path fill="#FFFFFF" d="M0,0v111.633h82.083c1.813,0,3.283-1.47,3.283-3.283V3.283C85.367,1.47,83.897,0,82.083,0H0z M42.683,98.5
		H9.85v-3.283h32.833V98.5z M73.875,87.008H9.85v-3.283h64.025V87.008z M73.875,75.517H9.85v-3.283h64.025V75.517z M73.875,64.025
		H9.85v-3.283h64.025V64.025z M35.719,43.517h-6.425V24.775h6.425V43.517z M32.475,22.449c-1.734,0-3.133-1.406-3.133-3.133
		s1.4-3.133,3.133-3.133c1.728,0,3.128,1.406,3.128,3.133C35.608,21.05,34.202,22.449,32.475,22.449z M56.072,43.517h-6.425v-9.758
		c0-2.015,0.041-4.609-2.729-4.609c-2.811,0-3.163,2.196-3.163,4.463v9.904h-5.353V24.775h5.353v2.677h0.07
		c0.72-0.533,2.811-2.934,5.441-2.934c5.465,0,6.806,3.473,6.806,8.159V43.517z"/>
</g>
</svg>
