<?xml version="1.0" encoding="utf-8"?>
<!-- Generator: Adobe Illustrator 17.1.0, SVG Export Plug-In . SVG Version: 6.00 Build 0)  -->
<!DOCTYPE svg PUBLIC "-//W3C//DTD SVG 1.1//EN" "http://www.w3.org/Graphics/SVG/1.1/DTD/svg11.dtd">
<svg version="1.1" id="Layer_1" xmlns="http://www.w3.org/2000/svg" xmlns:xlink="http://www.w3.org/1999/xlink" x="0px" y="0px"
	 viewBox="0 0 85.367 111.633" enable-background="new 0 0 85.367 111.633" xml:space="preserve">
<g>
	<path fill="#FFFFFF" d="M0,0v111.633h82.083c1.813,0,3.283-1.47,3.283-3.283V3.283C85.367,1.47,83.897,0,82.083,0H0z M40.782,19.75
		c4.749-0.727,8.781,3.304,8.054,8.053c-0.453,2.959-2.872,5.378-5.831,5.831c-4.749,0.727-8.781-3.304-8.053-8.054
		C35.404,22.622,37.823,20.203,40.782,19.75z M31.192,41.142c0-3.667,3-6.667,6.667-6.667h7.799c3.781,0,6.875,3.094,6.875,6.875
		v2.975H31.192V41.142z M42.683,98.5H9.85v-3.283h32.833V98.5z M73.875,87.008H9.85v-3.283h64.025V87.008z M73.875,75.517H9.85
		v-3.283h64.025V75.517z M73.875,64.025H9.85v-3.283h64.025V64.025z"/>
</g>
</svg>
